<svg xmlns="http://www.w3.org/2000/svg" version="1.1" xmlns:xlink="http://www.w3.org/1999/xlink" xmlns:svgjs="http://svgjs.dev/svgjs" width="100%" height="100%" viewBox="0 0 1000 600"><rect width="1000" height="600" x="0" y="0" fill="#87e9a9"/><g><rect width="333.3333333333333" height="333.3333333333333" rx="13.333333333333334" ry="13.333333333333334" y="77.77777587042934" fill="#0f4f34" transform="matrix(2.2499999313354513,0,0,2.2499999313354517,0,-249.99999084472722)" x="55.55555725097656"/><path d="M148.90481814598292 319.44444995456274L148.90481814598292 312.71405566473163L156.71792803896076 312.71405566473163Q169.1252635993451 312.71405566473163 174.83146745376712 297.3219365497265L174.83146745376712 297.3219365497265L220.12994728271747 169.44444504293523L225.39721237910703 169.44444504293523L271.105368382221 303.4378165783122Q273.21227442077685 308.7050816747018 276.1677953915288 310.69493737778225Q279.1233163622807 312.71405566473163 283.74680461355604 312.71405566473163L283.74680461355604 312.71405566473163L295.5396259126949 312.71405566473163L295.5396259126949 319.44444995456274L230.22553871746416 319.44444995456274L230.22553871746416 312.71405566473163L244.15452863902772 312.71405566473163Q247.31488769686143 312.71405566473163 249.42179373541728 311.1338761358147Q251.52869977397313 309.5536966068979 251.52869977397313 307.44679056834207L251.52869977397313 307.44679056834207Q251.52869977397313 304.6961076846719 250.68008484177702 302.7940397331979L250.68008484177702 302.7940397331979L240.76006891024332 274.7897469707267L191.48187767513195 274.7897469707267L186.4194506658242 288.8943123955032Q183.46392969507227 297.3219365497265 183.46392969507227 301.1260724526745L183.46392969507227 301.1260724526745Q183.46392969507227 305.7495607039499 185.77567382070993 309.2318081843407Q188.08741794634756 312.71405566473163 193.79362180076959 312.71405566473163L193.79362180076959 312.71405566473163L206.6398961191864 312.71405566473163L206.6398961191864 319.44444995456274L148.90481814598292 319.44444995456274ZM216.5306494668513 203.76945592107396L193.79362180076959 268.0300900970268L238.44832478460563 268.0300900970268L216.5306494668513 203.76945592107396Z " fill="#87e9a9" transform="matrix(2.2499999313354513,0,0,2.2499999313354517,0,-249.99999084472722)"/><path d="MNaN 244.4444461398655 " fill="#0f4f34" transform="matrix(2.2499999313354513,0,0,2.2499999313354517,0,-249.99999084472722)"/></g></svg>